<svg id="eBsH1XZwl7J1" xmlns="http://www.w3.org/2000/svg" xmlns:xlink="http://www.w3.org/1999/xlink" viewBox="0 0 100 100" shape-rendering="geometricPrecision" text-rendering="geometricPrecision"><path d="M48.152125,108.999901c-8.52885,0-15.465037-6.939893-15.465037-15.468735c0-8.523891,6.936187-15.465022,15.46875-15.468735h7.219575v-14.437898h-29.906663C16.936188,63.624534,10,56.688353,10,48.155799s6.936188-15.468735,15.46875-15.468735h29.906663v-7.21833C55.375413,16.944843,62.3116,10,70.844163,10c8.527613,0,15.46875,6.936181,15.46875,15.468735s-6.941137,15.468735-15.46875,15.468735h-7.219575v14.437898h29.906663C102.0601,55.375367,109,62.311548,109,70.844102c0,8.527604-6.9399,15.468735-15.46875,15.468735h-29.906663v7.21833c0,8.528841-6.9399,15.468735-15.472462,15.468735Zm.003712-22.687065c-3.9798.003712-7.218337,3.242247-7.218337,7.21833c0,3.979796,3.234825,7.21833,7.214625,7.21833c3.98475,0,7.223288-3.238534,7.223288-7.21833v-7.21833h-7.219575Zm15.46875-8.250404h29.906663c3.9798,0,7.218337-3.238534,7.218337-7.21833c0-3.981034-3.238538-7.219568-7.218337-7.219568h-29.906663v14.437898ZM25.46875,40.937469c-3.9798,0-7.218337,3.238534-7.218337,7.21833c0,3.981034,3.238537,7.219568,7.218337,7.219568h29.906663v-14.437898h-29.906663Zm38.155837-8.250404h7.219575c3.9798,0,7.218338-3.238534,7.218338-7.21833s-3.238538-7.21833-7.218338-7.21833c-3.981037,0-7.219575,3.238534-7.219575,7.21833v7.21833Z" transform="matrix(1 0 0 1.000001-9.5-9.50001)" fill="#40393E
"/></svg>
