<svg xmlns="http://www.w3.org/2000/svg" version="1.1" xmlns:xlink="http://www.w3.org/1999/xlink" viewBox="0 0 700 700" style="overflow: hidden; display: block;" width="700" height="700"><defs><linearGradient id="two-3" x1="350" y1="-350" x2="350" y2="350" spreadMethod="pad" gradientUnits="userSpaceOnUse"><stop offset="0%" stop-color="hsl(37, 99%, 67%)" stop-opacity="1"></stop><stop offset="100%" stop-color="hsl(316, 73%, 52%)" stop-opacity="1"></stop></linearGradient></defs><g id="two-0" transform="matrix(1 0 0 1 0 0)" opacity="1"><path transform="matrix(1 0 0 1 350 350)" id="two-9" d="M 320.308523 94.051068 C 307.263199 144.985812 196.125946 64.277639 161.267707 103.640462 C 141.819642 125.601719 191.123308 176.137424 166.687875 192.368063 C 135.461735 213.109264 99.69708 155.8591 64.858267 142.019795 C 49.948889 136.097222 34.373025 126.615566 18.373425 127.78998 C 4.001603 128.84491 -6.690573 147.50559 -21.068144 146.532159 C -34.95695 145.591819 -42.460342 123.525056 -56.380776 123.456678 C -100.832794 123.238326 -137.078952 226.052927 -169.862785 196.032103 C -205.748009 163.171272 -81.267553 109.507151 -101.637015 65.318143 C -111.243809 44.477402 -161.58455 71.316079 -169.410966 49.743547 C -176.437276 30.376408 -133.806909 20.492758 -131.685128 0 C -129.995915 -16.314895 -143.72702 -31.365242 -152.968952 -44.915737 C -187.403662 -95.403818 -310.378026 -126.905318 -279.826461 -179.833547 C -253.438609 -225.548467 -176.897106 -143.882857 -124.116832 -143.238459 C -106.053839 -143.017927 -87.985387 -149.775283 -70.538446 -154.457651 C -55.05419 -158.613279 -36.861628 -159.570856 -24.391557 -169.647004 C 8.468597 -196.198879 4.333345 -257.933409 40.277098 -280.133374 C 65.699731 -295.835173 110.940697 -308.518326 130.631625 -286.04336 C 169.622237 -241.539986 89.308615 -169.063469 95.507351 -110.221359 C 96.947248 -96.552991 101.009379 -80.232123 111.997696 -71.976549 C 136.791211 -53.349067 191.369512 -88.00066 205.23854 -60.263473 C 215.478414 -39.784368 165.292757 -22.211042 170.853191 -0.000001 C 185.004915 56.528779 334.766707 37.599893 320.308523 94.051068 Z " fill="url(#two-3)" stroke="undefined" stroke-width="1" stroke-opacity="1" fill-opacity="1" visibility="visible" stroke-linecap="butt" stroke-linejoin="miter" stroke-miterlimit="4"></path></g></svg>