<svg id="visual" viewBox="0 0 900 600" width="900" height="600" xmlns="http://www.w3.org/2000/svg" xmlns:xlink="http://www.w3.org/1999/xlink" version="1.1"><rect x="0" y="0" width="900" height="600" fill="#001220"></rect><defs><linearGradient id="grad1_0" x1="33.3%" y1="100%" x2="100%" y2="0%"><stop offset="20%" stop-color="#fbae3c" stop-opacity="1"></stop><stop offset="80%" stop-color="#fbae3c" stop-opacity="1"></stop></linearGradient></defs><defs><linearGradient id="grad1_1" x1="33.3%" y1="100%" x2="100%" y2="0%"><stop offset="20%" stop-color="#fbae3c" stop-opacity="1"></stop><stop offset="80%" stop-color="#cc5867" stop-opacity="1"></stop></linearGradient></defs><defs><linearGradient id="grad1_2" x1="33.3%" y1="100%" x2="100%" y2="0%"><stop offset="20%" stop-color="#593762" stop-opacity="1"></stop><stop offset="80%" stop-color="#cc5867" stop-opacity="1"></stop></linearGradient></defs><defs><linearGradient id="grad1_3" x1="33.3%" y1="100%" x2="100%" y2="0%"><stop offset="20%" stop-color="#593762" stop-opacity="1"></stop><stop offset="80%" stop-color="#001220" stop-opacity="1"></stop></linearGradient></defs><defs><linearGradient id="grad2_0" x1="0%" y1="100%" x2="66.7%" y2="0%"><stop offset="20%" stop-color="#fbae3c" stop-opacity="1"></stop><stop offset="80%" stop-color="#fbae3c" stop-opacity="1"></stop></linearGradient></defs><defs><linearGradient id="grad2_1" x1="0%" y1="100%" x2="66.7%" y2="0%"><stop offset="20%" stop-color="#cc5867" stop-opacity="1"></stop><stop offset="80%" stop-color="#fbae3c" stop-opacity="1"></stop></linearGradient></defs><defs><linearGradient id="grad2_2" x1="0%" y1="100%" x2="66.7%" y2="0%"><stop offset="20%" stop-color="#cc5867" stop-opacity="1"></stop><stop offset="80%" stop-color="#593762" stop-opacity="1"></stop></linearGradient></defs><defs><linearGradient id="grad2_3" x1="0%" y1="100%" x2="66.7%" y2="0%"><stop offset="20%" stop-color="#001220" stop-opacity="1"></stop><stop offset="80%" stop-color="#593762" stop-opacity="1"></stop></linearGradient></defs><g transform="translate(900, 600)"><path d="M-378.6 0C-345.2 -30.7 -311.7 -61.4 -295.8 -96.1C-279.8 -130.8 -281.4 -169.5 -262.1 -190.4C-242.9 -211.4 -202.8 -214.7 -178.1 -245.1C-153.4 -275.6 -144.1 -333.3 -117 -360.1C-89.9 -386.8 -44.9 -382.7 0 -378.6L0 0Z" fill="#232745"></path><path d="M-283.9 0C-258.9 -23 -233.8 -46.1 -221.8 -72.1C-209.9 -98.1 -211 -127.1 -196.6 -142.8C-182.1 -158.6 -152.1 -161 -133.6 -183.8C-115.1 -206.7 -108.1 -250 -87.7 -270C-67.4 -290.1 -33.7 -287 0 -283.9L0 0Z" fill="#96446e"></path><path d="M-189.3 0C-172.6 -15.4 -155.9 -30.7 -147.9 -48.1C-139.9 -65.4 -140.7 -84.7 -131.1 -95.2C-121.4 -105.7 -101.4 -107.3 -89 -122.6C-76.7 -137.8 -72.1 -166.6 -58.5 -180C-44.9 -193.4 -22.5 -191.4 0 -189.3L0 0Z" fill="#f17c53"></path><path d="M-94.6 0C-86.3 -7.7 -77.9 -15.4 -73.9 -24C-70 -32.7 -70.3 -42.4 -65.5 -47.6C-60.7 -52.9 -50.7 -53.7 -44.5 -61.3C-38.4 -68.9 -36 -83.3 -29.2 -90C-22.5 -96.7 -11.2 -95.7 0 -94.6L0 0Z" fill="#fbae3c"></path></g><g transform="translate(0, 0)"><path d="M378.6 0C371.6 40.9 364.6 81.8 343.3 111.6C322.1 141.4 286.7 160.1 267.8 194.6C248.9 229 246.5 279.3 222.5 306.3C198.5 333.3 152.9 337.1 112.2 345.2C71.5 353.4 35.7 366 0 378.6L0 0Z" fill="#232745"></path><path d="M283.9 0C278.7 30.7 273.4 61.3 257.5 83.7C241.6 106 215 120.1 200.8 145.9C186.7 171.8 184.9 209.5 166.9 229.7C148.9 250 114.7 252.8 84.1 258.9C53.6 265.1 26.8 274.5 0 283.9L0 0Z" fill="#96446e"></path><path d="M189.3 0C185.8 20.4 182.3 40.9 171.7 55.8C161.1 70.7 143.3 80 133.9 97.3C124.4 114.5 123.3 139.6 111.3 153.1C99.3 166.6 76.4 168.5 56.1 172.6C35.7 176.7 17.9 183 0 189.3L0 0Z" fill="#f17c53"></path><path d="M94.6 0C92.9 10.2 91.1 20.4 85.8 27.9C80.5 35.3 71.7 40 66.9 48.6C62.2 57.3 61.6 69.8 55.6 76.6C49.6 83.3 38.2 84.3 28 86.3C17.9 88.4 8.9 91.5 0 94.6L0 0Z" fill="#fbae3c"></path></g></svg>