
<svg width="349" height="306" viewBox="0 0 349 306" fill="none" xmlns="http://www.w3.org/2000/svg">
<g style="mix-blend-mode:saturation">
<path d="M178.654 0H170.346C76.2669 0 0 68.4931 0 152.983C0 237.474 76.2669 305.966 170.346 305.966H178.654C272.734 305.966 349 237.474 349 152.983C349 68.4931 272.734 0 178.654 0Z" fill="#000000"/>
</g>
<g style="mix-blend-mode:difference" filter="url(#filter0_d_1_4)">
<path d="M51 136.491C51 117.733 68.407 101.957 89.7998 101.318C111.18 100.68 128.59 115.415 128.599 134.182V150.061V170.901V233.983C128.599 242.736 136.126 251.432 147.144 250.888C157.94 250.354 164.813 241.655 164.813 232.901V167.123V148.98V83.2018C164.813 64.4349 182.211 48.6594 203.613 48.02C225.015 47.381 242.412 62.1171 242.412 80.8841V146.662L260.518 146.121C281.898 145.483 299.317 160.218 299.317 178.985C299.317 197.741 281.919 213.527 260.518 214.167C239.116 214.806 221.718 200.058 221.718 181.303V165.424L185.504 166.505V232.283C185.504 251.042 168.106 266.825 146.705 267.464C125.315 268.103 107.905 253.36 107.905 234.601V168.823L89.7998 169.364C68.407 170.002 51 155.258 51 136.491ZM107.905 134.8C107.896 126.047 99.7728 119.167 89.7998 119.465C79.8171 119.763 71.6943 127.12 71.6943 135.873C71.6943 144.638 79.8171 151.518 89.7998 151.22L107.905 150.679V134.8ZM221.718 81.5023C221.718 72.7486 213.595 65.8684 203.613 66.1667C193.627 66.4646 185.504 73.8304 185.504 82.5836V148.361L221.718 147.28V81.5023ZM242.412 164.806V180.684C242.412 189.438 250.536 196.318 260.518 196.02C270.5 195.722 278.623 188.357 278.623 179.603C278.623 170.847 270.5 163.967 260.518 164.265L242.412 164.806Z" fill="white"/>
</g>
<defs>
<filter id="filter0_d_1_4" x="47" y="48" width="256.317" height="227.484" filterUnits="userSpaceOnUse" color-interpolation-filters="sRGB">
<feFlood flood-opacity="0" result="BackgroundImageFix"/>
<feColorMatrix in="SourceAlpha" type="matrix" values="0 0 0 0 0 0 0 0 0 0 0 0 0 0 0 0 0 0 127 0" result="hardAlpha"/>
<feOffset dy="4"/>
<feGaussianBlur stdDeviation="2"/>
<feComposite in2="hardAlpha" operator="out"/>
<feColorMatrix type="matrix" values="0 0 0 0 0 0 0 0 0 0 0 0 0 0 0 0 0 0 0.25 0"/>
<feBlend mode="normal" in2="BackgroundImageFix" result="effect1_dropShadow_1_4"/>
<feBlend mode="normal" in="SourceGraphic" in2="effect1_dropShadow_1_4" result="shape"/>
</filter>
</defs>
</svg>
