<svg xmlns="http://www.w3.org/2000/svg" version="1.1" xmlns:xlink="http://www.w3.org/1999/xlink" viewBox="0 0 700 700" style="overflow: hidden; display: block;" width="700" height="700"><defs><linearGradient id="two-7" x1="350" y1="-350" x2="350" y2="350" spreadMethod="pad" gradientUnits="userSpaceOnUse"><stop offset="0%" stop-color="hsl(37, 99%, 67%)" stop-opacity="1"></stop><stop offset="100%" stop-color="hsl(316, 73%, 52%)" stop-opacity="1"></stop></linearGradient></defs><g id="two-0" transform="matrix(1 0 0 1 0 0)" opacity="1"><path transform="matrix(1 0 0 1 350 350)" id="two-35" d="M 145.118846 42.610737 C 170.547531 78.321416 251.281369 109.379421 227.933891 146.484217 C 205.201475 182.61153 132.644837 87.985598 101.863803 117.557096 C 58.50864 159.208626 190.423773 272.254064 135.460447 296.617005 C 78.296961 321.955186 83.002318 138.024396 20.943042 145.662063 C -31.623962 152.131511 10.475575 299.114054 -42.160381 293.231889 C -89.948022 287.891532 -25.248259 171.000117 -68.462989 149.913034 C -106.016386 131.588458 -138.934514 209.893921 -180.698207 208.536846 C -209.218872 207.610092 -246.514205 190.98194 -254.583564 163.610921 C -265.325093 127.175982 -191.655241 95.800563 -204.4025 60.017989 C -220.166118 15.768253 -338.74527 46.677189 -333.475471 0 C -326.16705 -64.73425 -159.288036 21.122248 -140.418526 -41.2306 C -122.902109 -99.112253 -297.793071 -119.634608 -268.338627 -172.450764 C -244.070304 -215.96744 -158.624219 -106.975359 -120.966471 -139.602749 C -83.318783 -172.221423 -178.156806 -270.216272 -132.489046 -290.110542 C -84.518131 -311.008136 -76.907678 -179.836566 -24.957538 -173.583486 C -3.258861 -170.971683 8.848958 -205.646307 30.223164 -210.206726 C 50.21973 -214.47321 79.180838 -216.43905 91.33584 -199.997594 C 113.444031 -170.092964 49.805079 -114.178303 76.497848 -88.283224 C 96.107162 -69.259917 141.813007 -123.529575 158.198224 -101.667826 C 172.300074 -82.852629 135.359596 -59.539392 127.409657 -37.410851 C 123.109243 -25.440708 116.100542 -12.555194 118.136473 -0.000001 C 120.800584 16.429059 135.46477 29.053072 145.118846 42.610737 Z " fill="url(#two-7)" stroke="undefined" stroke-width="1" stroke-opacity="1" fill-opacity="1" visibility="visible" stroke-linecap="butt" stroke-linejoin="miter" stroke-miterlimit="4"></path></g></svg>