<svg id="visual" viewBox="0 0 900 900" width="900" height="900" xmlns="http://www.w3.org/2000/svg" xmlns:xlink="http://www.w3.org/1999/xlink" version="1.1"><rect x="0" y="0" width="900" height="900" fill="#001220"></rect><defs><linearGradient id="grad1_0" x1="0%" y1="0%" x2="100%" y2="100%"><stop offset="30%" stop-color="#001220" stop-opacity="1"></stop><stop offset="70%" stop-color="#001220" stop-opacity="1"></stop></linearGradient></defs><defs><linearGradient id="grad2_0" x1="0%" y1="0%" x2="100%" y2="100%"><stop offset="30%" stop-color="#001220" stop-opacity="1"></stop><stop offset="70%" stop-color="#001220" stop-opacity="1"></stop></linearGradient></defs><g transform="translate(900, 0)"><path d="M0 526C-49.3 473.4 -98.7 420.7 -166.5 401.9C-234.3 383.1 -320.6 398.1 -367 367C-413.4 335.9 -420 258.7 -458.2 189.8C-496.5 121 -566.4 60.5 -636.4 0L0 0Z" fill="#FF0066"></path></g><g transform="translate(0, 900)"><path d="M0 -520C53.7 -477.2 107.4 -434.3 169.5 -409.3C231.6 -384.2 302.1 -376.9 340.8 -340.8C379.6 -304.8 386.6 -239.9 430.5 -178.3C474.5 -116.7 555.4 -58.4 636.4 0L0 0Z" fill="#FF0066"></path></g></svg>