
<svg width="750" height="750" viewBox="0 0 750 750" fill="none" xmlns="http://www.w3.org/2000/svg">
<g clip-path="url(#clip0_1_39)">
<path d="M383.642 0H365.803C163.776 0 0 167.852 0 374.907C0 581.963 163.776 749.814 365.803 749.814H383.642C585.67 749.814 749.445 581.963 749.445 374.907C749.445 167.852 585.67 0 383.642 0Z" fill="#070606"/>
<path d="M107.473 322.807C107.473 276.836 144.853 238.176 190.792 236.61C236.703 235.045 274.09 271.157 274.11 317.147V356.061V407.133V561.723C274.11 583.174 290.273 604.486 313.933 603.151C337.116 601.843 351.876 580.524 351.876 559.073V397.874V353.411V192.213C351.876 146.222 389.236 107.562 435.195 105.995C481.153 104.429 518.513 140.542 518.513 186.533V347.731L557.393 346.406C603.304 344.841 640.711 380.953 640.711 426.944C640.711 472.908 603.351 511.594 557.393 513.161C511.434 514.727 474.074 478.587 474.074 432.623V393.709L396.308 396.36V557.558C396.308 603.529 358.948 642.209 312.99 643.775C267.058 645.341 229.671 609.209 229.671 563.238V402.039L190.792 403.365C144.853 404.93 107.473 368.798 107.473 322.807ZM229.671 318.662C229.651 297.211 212.208 280.35 190.792 281.08C169.355 281.811 151.912 299.841 151.912 321.292C151.912 342.77 169.355 359.632 190.792 358.901L229.671 357.576V318.662ZM474.074 188.048C474.074 166.596 456.631 149.735 435.195 150.466C413.752 151.196 396.308 169.247 396.308 190.698V351.896L474.074 349.246V188.048ZM518.513 392.195V431.108C518.513 452.56 535.957 469.421 557.393 468.691C578.829 467.96 596.272 449.91 596.272 428.458C596.272 407 578.829 390.139 557.393 390.869L518.513 392.195Z" fill="#Ffffff"/>
<path d="M107.473 322.807C107.473 276.836 144.853 238.176 190.792 236.61C236.703 235.045 274.09 271.157 274.11 317.147V356.061V407.133V561.723C274.11 583.174 290.273 604.486 313.933 603.151C337.116 601.843 351.876 580.524 351.876 559.073V397.874V353.411V192.213C351.876 146.222 389.236 107.562 435.195 105.995C481.153 104.429 518.513 140.542 518.513 186.533V347.731L557.393 346.406C603.304 344.841 640.711 380.953 640.711 426.944C640.711 472.908 603.351 511.594 557.393 513.161C511.434 514.727 474.074 478.587 474.074 432.623V393.709L396.308 396.36V557.558C396.308 603.529 358.948 642.209 312.99 643.775C267.058 645.341 229.671 609.209 229.671 563.238V402.039L190.792 403.365C144.853 404.93 107.473 368.798 107.473 322.807ZM229.671 318.662C229.651 297.211 212.208 280.35 190.792 281.08C169.355 281.811 151.912 299.841 151.912 321.292C151.912 342.77 169.355 359.632 190.792 358.901L229.671 357.576V318.662ZM474.074 188.048C474.074 166.596 456.631 149.735 435.195 150.466C413.752 151.196 396.308 169.247 396.308 190.698V351.896L474.074 349.246V188.048ZM518.513 392.195V431.108C518.513 452.56 535.957 469.421 557.393 468.691C578.829 467.96 596.272 449.91 596.272 428.458C596.272 407 578.829 390.139 557.393 390.869L518.513 392.195Z" stroke="black"/>
</g>
<defs>
<clipPath id="clip0_1_39">
<rect width="750" height="750" fill="white"/>
</clipPath>
</defs>
</svg>
