
<svg xmlns="http://www.w3.org/2000/svg" version="1.1" xmlns:xlink="http://www.w3.org/1999/xlink" viewBox="0 0 700 700" style="overflow: hidden; display: block;" width="700" height="700"><defs><linearGradient id="two-3" x1="350" y1="-350" x2="350" y2="350" spreadMethod="pad" gradientUnits="userSpaceOnUse"><stop offset="0%" stop-color="hsl(37, 99%, 67%)" stop-opacity="1"></stop><stop offset="100%" stop-color="hsl(316, 73%, 52%)" stop-opacity="1"></stop></linearGradient></defs><g id="two-0" transform="matrix(1 0 0 1 0 0)" opacity="1"><path transform="matrix(1 0 0 1 350 350)" id="two-17" d="M 202.657049 59.505478 C 208.915172 80.87204 197.417207 104.49095 197.233668 126.754381 C 196.936754 162.770207 232.643622 213.562744 204.212351 235.673616 C 173.187118 259.801802 129.197081 190.226638 90.891177 199.023917 C 66.505709 204.624249 61.128769 253.083602 36.159135 251.492312 C 3.976928 249.441372 6.653972 180.305933 -25.227422 175.460569 C -56.274559 170.741997 -76.467215 242.930784 -104.306249 228.398824 C -135.245419 212.248594 -77.962003 143.052719 -106.283298 122.657463 C -152.637556 89.275975 -219.449745 198.08947 -271.452787 174.452113 C -298.989235 161.935751 -318.247743 119.08887 -308.298208 90.524521 C -287.291184 30.214971 -141.615449 63.714056 -137.250144 0 C -134.61963 -38.393821 -240.165593 -30.507754 -231.919912 -68.097831 C -224.951956 -99.863067 -151.144405 -100.542444 -135.17815 -86.873722 C -114.428177 -123.693457 -209.447368 -177.319381 -179.420564 -207.062369 C -153.692785 -232.546968 -109.173669 -151.94197 -76.804318 -168.177996 C -39.254158 -187.012645 -76.897323 -267.514069 -41.776828 -290.564217 C -18.958311 -305.540378 15.007288 -290.236124 40.230071 -279.806293 C 65.147185 -269.502858 95.077877 -255.149999 105.089668 -230.114277 C 121.58832 -188.857361 60.448748 -134.695163 84.14323 -97.106466 C 92.542492 -83.781959 114.234259 -85.252079 129.884165 -83.471485 C 194.523631 -76.117024 308.070085 -158.260064 326.632422 -95.907933 C 344.948729 -34.382237 170.298375 -62.883129 157.390607 -0.000001 C 152.429561 24.168861 195.721909 35.827436 202.657049 59.505478 Z " fill="url(#two-3)" stroke="undefined" stroke-width="1" stroke-opacity="1" fill-opacity="1" visibility="visible" stroke-linecap="butt" stroke-linejoin="miter" stroke-miterlimit="4"></path></g></svg>