<svg xmlns="http://www.w3.org/2000/svg" version="1.1" xmlns:xlink="http://www.w3.org/1999/xlink" xmlns:svgjs="http://svgjs.dev/svgjs" viewBox="0 0 800 400"><path d="M105.38116455078125,321.07623291015625C102.98953501383464,330.94170633951825,104.18534819285075,376.8311055501302,91.03138732910156,380.2690734863281C77.87742646535237,383.70704142252606,26.606875737508137,351.4200388590495,26.457399368286133,341.70404052734375C26.30792299906413,331.988042195638,91.33034388224284,370.8520081837972,90.13452911376953,321.97308349609375C88.93871434529622,273.0941588083903,-20.777282079060875,40.956651051839195,19.28251075744629,48.43049240112305C59.34230359395345,55.9043337504069,279.8206396102905,367.2645619710286,330.4932861328125,366.8161315917969C381.1659326553345,366.3677012125651,281.1659240722656,44.99252446492513,323.3183898925781,45.73991012573242C365.4708557128906,46.48729578653971,544.2451527913412,366.81614112854004,583.4080810546875,371.3004455566406C622.5710093180338,375.7847499847412,535.8744405110677,105.5306396484375,558.2959594726562,72.64573669433594C580.7174784342448,39.760833740234375,695.0672403971354,166.36770884195963,717.9371948242188,173.99102783203125C740.8071492513021,181.61434682210287,690.5829467773438,132.43647257486978,695.5156860351562,118.38565063476562C700.4484252929688,104.33482869466145,738.8639729817709,94.46935526529948,747.5336303710938,89.68609619140625" fill="none" stroke-width="25" stroke="url(&quot;#SvgjsLinearGradient1009&quot;)" stroke-linecap="round"></path><defs><linearGradient id="SvgjsLinearGradient1009"><stop stop-color="hsl(37, 99%, 67%)" offset="0"></stop><stop stop-color="hsl(316, 73%, 52%)" offset="1"></stop></linearGradient></defs></svg>