<svg xmlns="http://www.w3.org/2000/svg" version="1.1" xmlns:xlink="http://www.w3.org/1999/xlink" viewBox="0 0 700 700" style="overflow: hidden; display: block;" width="700" height="700"><defs><linearGradient id="two-3" x1="350" y1="-350" x2="350" y2="350" spreadMethod="pad" gradientUnits="userSpaceOnUse"><stop offset="0%" stop-color="hsl(37, 99%, 67%)" stop-opacity="1"></stop><stop offset="100%" stop-color="hsl(316, 73%, 52%)" stop-opacity="1"></stop></linearGradient></defs><g id="two-0" transform="matrix(1 0 0 1 0 0)" opacity="1"><path transform="matrix(1 0 0 1 350 350)" id="two-2" d="M 264.882879 77.776631 C 251.329977 99.968114 255.178876 135.735177 233.462772 150.037413 C 205.052865 168.748192 164.332892 148.377184 130.379179 150.465593 C 110.981112 151.658721 88.4598 147.266745 71.900524 157.440187 C 51.351376 170.064868 55.496313 218.609752 31.381392 218.26238 C -0.375542 217.804925 11.912748 140.206929 -19.649018 136.661919 C -56.430394 132.530645 -61.779737 218.292183 -98.732933 216.194965 C -121.188363 214.920544 -125.257445 178.788672 -141.013274 162.737993 C -155.748488 147.727029 -174.758076 136.487869 -190.265826 122.276421 C -207.829085 106.181285 -241.946184 94.491246 -240.773325 70.697426 C -238.98482 34.414011 -153.004873 36.16921 -156.392088 0 C -162.467758 -64.876973 -346.282881 -33.770767 -328.660467 -96.503421 C -311.742675 -156.727748 -185.443706 -47.318106 -139.22884 -89.476942 C -122.876448 -104.394173 -137.782356 -134.427359 -135.564908 -156.450243 C -132.016427 -191.692451 -153.377563 -250.94407 -119.944635 -262.642115 C -79.468703 -276.804478 -55.865063 -203.690456 -25.005276 -173.915514 C -10.342103 -159.76781 -1.585792 -128.921517 18.74029 -130.341586 C 74.838735 -134.260868 67.84189 -282.79492 121.579587 -266.222162 C 159.18118 -254.625795 98.030107 -173.217074 127.487813 -147.128781 C 155.771355 -122.080349 207.040482 -170.398502 241.681487 -155.319261 C 268.18669 -143.781537 282.39484 -112.257687 296.631223 -87.098786 C 311.709923 -60.451323 333.70123 -30.190451 328.603073 -0.000001 C 323.078277 32.716931 282.176705 49.45977 264.882879 77.776631 Z " fill="url(#two-3)" stroke="undefined" stroke-width="1" stroke-opacity="1" fill-opacity="1" visibility="visible" stroke-linecap="butt" stroke-linejoin="miter" stroke-miterlimit="4"></path></g></svg>