<svg id="visual" viewBox="0 0 900 600" width="900" height="600" xmlns="http://www.w3.org/2000/svg" xmlns:xlink="http://www.w3.org/1999/xlink" version="1.1"><rect x="0" y="0" width="900" height="600" fill="#FFFFFF"></rect><defs><linearGradient id="grad1_0" x1="33.3%" y1="0%" x2="100%" y2="100%"><stop offset="20%" stop-color="#d5c7c7" stop-opacity="1"></stop><stop offset="80%" stop-color="#d5c7c7" stop-opacity="1"></stop></linearGradient></defs><defs><linearGradient id="grad1_1" x1="33.3%" y1="0%" x2="100%" y2="100%"><stop offset="20%" stop-color="#d5c7c7" stop-opacity="1"></stop><stop offset="80%" stop-color="#dfd5d5" stop-opacity="1"></stop></linearGradient></defs><defs><linearGradient id="grad1_2" x1="33.3%" y1="0%" x2="100%" y2="100%"><stop offset="20%" stop-color="#eae3e3" stop-opacity="1"></stop><stop offset="80%" stop-color="#dfd5d5" stop-opacity="1"></stop></linearGradient></defs><defs><linearGradient id="grad1_3" x1="33.3%" y1="0%" x2="100%" y2="100%"><stop offset="20%" stop-color="#eae3e3" stop-opacity="1"></stop><stop offset="80%" stop-color="#f4f1f1" stop-opacity="1"></stop></linearGradient></defs><defs><linearGradient id="grad1_4" x1="33.3%" y1="0%" x2="100%" y2="100%"><stop offset="20%" stop-color="#ffffff" stop-opacity="1"></stop><stop offset="80%" stop-color="#f4f1f1" stop-opacity="1"></stop></linearGradient></defs><defs><linearGradient id="grad2_0" x1="0%" y1="0%" x2="66.7%" y2="100%"><stop offset="20%" stop-color="#d5c7c7" stop-opacity="1"></stop><stop offset="80%" stop-color="#d5c7c7" stop-opacity="1"></stop></linearGradient></defs><defs><linearGradient id="grad2_1" x1="0%" y1="0%" x2="66.7%" y2="100%"><stop offset="20%" stop-color="#dfd5d5" stop-opacity="1"></stop><stop offset="80%" stop-color="#d5c7c7" stop-opacity="1"></stop></linearGradient></defs><defs><linearGradient id="grad2_2" x1="0%" y1="0%" x2="66.7%" y2="100%"><stop offset="20%" stop-color="#dfd5d5" stop-opacity="1"></stop><stop offset="80%" stop-color="#eae3e3" stop-opacity="1"></stop></linearGradient></defs><defs><linearGradient id="grad2_3" x1="0%" y1="0%" x2="66.7%" y2="100%"><stop offset="20%" stop-color="#f4f1f1" stop-opacity="1"></stop><stop offset="80%" stop-color="#eae3e3" stop-opacity="1"></stop></linearGradient></defs><defs><linearGradient id="grad2_4" x1="0%" y1="0%" x2="66.7%" y2="100%"><stop offset="20%" stop-color="#f4f1f1" stop-opacity="1"></stop><stop offset="80%" stop-color="#ffffff" stop-opacity="1"></stop></linearGradient></defs><g transform="translate(900, 0)"><path d="M0 432.7C-42.1 387.3 -84.3 342 -133.6 322.4C-182.8 302.8 -239.3 309 -287.8 287.8C-336.3 266.6 -376.9 218.1 -399.7 165.6C-422.6 113.1 -427.6 56.5 -432.7 0L0 0Z" fill="#faf8f8"></path><path d="M0 346.1C-33.7 309.9 -67.4 273.6 -106.8 257.9C-146.3 242.3 -191.4 247.2 -230.2 230.2C-269 213.3 -301.5 174.5 -319.8 132.5C-338 90.4 -342.1 45.2 -346.1 0L0 0Z" fill="#efeaea"></path><path d="M0 259.6C-25.3 232.4 -50.6 205.2 -80.1 193.5C-109.7 181.7 -143.6 185.4 -172.7 172.7C-201.8 160 -226.1 130.9 -239.8 99.3C-253.5 67.8 -256.6 33.9 -259.6 0L0 0Z" fill="#e5dcdc"></path><path d="M0 173.1C-16.9 154.9 -33.7 136.8 -53.4 129C-73.1 121.1 -95.7 123.6 -115.1 115.1C-134.5 106.6 -150.8 87.2 -159.9 66.2C-169 45.2 -171 22.6 -173.1 0L0 0Z" fill="#dacece"></path><path d="M0 86.5C-8.4 77.5 -16.9 68.4 -26.7 64.5C-36.6 60.6 -47.9 61.8 -57.6 57.6C-67.3 53.3 -75.4 43.6 -79.9 33.1C-84.5 22.6 -85.5 11.3 -86.5 0L0 0Z" fill="#d5c7c7"></path></g><g transform="translate(0, 600)"><path d="M0 -432.7C49.2 -402.2 98.4 -371.8 143.9 -347.4C189.4 -323 231.3 -304.6 277.2 -277.2C323.1 -249.8 373.1 -213.3 399.7 -165.6C426.3 -117.9 429.5 -58.9 432.7 0L0 0Z" fill="#faf8f8"></path><path d="M0 -346.1C39.3 -321.8 78.7 -297.4 115.1 -277.9C151.5 -258.4 185 -243.7 221.7 -221.7C258.5 -199.8 298.5 -170.6 319.8 -132.5C341.1 -94.3 343.6 -47.1 346.1 0L0 0Z" fill="#efeaea"></path><path d="M0 -259.6C29.5 -241.3 59 -223.1 86.3 -208.4C113.6 -193.8 138.8 -182.8 166.3 -166.3C193.9 -149.9 223.9 -128 239.8 -99.3C255.8 -70.7 257.7 -35.4 259.6 0L0 0Z" fill="#e5dcdc"></path><path d="M0 -173.1C19.7 -160.9 39.3 -148.7 57.6 -139C75.8 -129.2 92.5 -121.8 110.9 -110.9C129.2 -99.9 149.3 -85.3 159.9 -66.2C170.5 -47.1 171.8 -23.6 173.1 0L0 0Z" fill="#dacece"></path><path d="M0 -86.5C9.8 -80.4 19.7 -74.4 28.8 -69.5C37.9 -64.6 46.3 -60.9 55.4 -55.4C64.6 -50 74.6 -42.7 79.9 -33.1C85.3 -23.6 85.9 -11.8 86.5 0L0 0Z" fill="#d5c7c7"></path></g></svg>