<svg id="visual" viewBox="0 0 900 600" width="900" height="600" xmlns="http://www.w3.org/2000/svg" xmlns:xlink="http://www.w3.org/1999/xlink" version="1.1"><rect x="0" y="0" width="900" height="600" fill="#FFFFFF"></rect><defs><linearGradient id="grad1_0" x1="33.3%" y1="0%" x2="100%" y2="100%"><stop offset="20%" stop-color="#f4ecec" stop-opacity="1"></stop><stop offset="80%" stop-color="#f4ecec" stop-opacity="1"></stop></linearGradient></defs><defs><linearGradient id="grad1_1" x1="33.3%" y1="0%" x2="100%" y2="100%"><stop offset="20%" stop-color="#f4ecec" stop-opacity="1"></stop><stop offset="80%" stop-color="#f7f1f1" stop-opacity="1"></stop></linearGradient></defs><defs><linearGradient id="grad1_2" x1="33.3%" y1="0%" x2="100%" y2="100%"><stop offset="20%" stop-color="#faf5f5" stop-opacity="1"></stop><stop offset="80%" stop-color="#f7f1f1" stop-opacity="1"></stop></linearGradient></defs><defs><linearGradient id="grad1_3" x1="33.3%" y1="0%" x2="100%" y2="100%"><stop offset="20%" stop-color="#faf5f5" stop-opacity="1"></stop><stop offset="80%" stop-color="#fcfafa" stop-opacity="1"></stop></linearGradient></defs><defs><linearGradient id="grad1_4" x1="33.3%" y1="0%" x2="100%" y2="100%"><stop offset="20%" stop-color="#ffffff" stop-opacity="1"></stop><stop offset="80%" stop-color="#fcfafa" stop-opacity="1"></stop></linearGradient></defs><defs><linearGradient id="grad2_0" x1="0%" y1="0%" x2="66.7%" y2="100%"><stop offset="20%" stop-color="#f4ecec" stop-opacity="1"></stop><stop offset="80%" stop-color="#f4ecec" stop-opacity="1"></stop></linearGradient></defs><defs><linearGradient id="grad2_1" x1="0%" y1="0%" x2="66.7%" y2="100%"><stop offset="20%" stop-color="#f7f1f1" stop-opacity="1"></stop><stop offset="80%" stop-color="#f4ecec" stop-opacity="1"></stop></linearGradient></defs><defs><linearGradient id="grad2_2" x1="0%" y1="0%" x2="66.7%" y2="100%"><stop offset="20%" stop-color="#f7f1f1" stop-opacity="1"></stop><stop offset="80%" stop-color="#faf5f5" stop-opacity="1"></stop></linearGradient></defs><defs><linearGradient id="grad2_3" x1="0%" y1="0%" x2="66.7%" y2="100%"><stop offset="20%" stop-color="#fcfafa" stop-opacity="1"></stop><stop offset="80%" stop-color="#faf5f5" stop-opacity="1"></stop></linearGradient></defs><defs><linearGradient id="grad2_4" x1="0%" y1="0%" x2="66.7%" y2="100%"><stop offset="20%" stop-color="#fcfafa" stop-opacity="1"></stop><stop offset="80%" stop-color="#ffffff" stop-opacity="1"></stop></linearGradient></defs><g transform="translate(900, 0)"><path d="M0 486.7C-44.6 436.3 -89.1 385.9 -153.5 370.5C-217.8 355.1 -301.9 374.7 -344.2 344.2C-386.5 313.7 -386.9 233 -403.7 167.2C-420.5 101.5 -453.6 50.8 -486.7 0L0 0Z" fill="#fefdfd"></path><path d="M0 389.4C-35.6 349 -71.3 308.7 -122.8 296.4C-174.2 284.1 -241.5 299.8 -275.3 275.3C-309.2 250.9 -309.6 186.4 -323 133.8C-336.4 81.2 -362.9 40.6 -389.4 0L0 0Z" fill="#fbf8f8"></path><path d="M0 292C-26.7 261.8 -53.5 231.5 -92.1 222.3C-130.7 213 -181.1 224.8 -206.5 206.5C-231.9 188.2 -232.2 139.8 -242.2 100.3C-252.3 60.9 -272.2 30.5 -292 0L0 0Z" fill="#f8f3f3"></path><path d="M0 194.7C-17.8 174.5 -35.6 154.4 -61.4 148.2C-87.1 142 -120.8 149.9 -137.7 137.7C-154.6 125.5 -154.8 93.2 -161.5 66.9C-168.2 40.6 -181.5 20.3 -194.7 0L0 0Z" fill="#f5eeee"></path><path d="M0 97.3C-8.9 87.3 -17.8 77.2 -30.7 74.1C-43.6 71 -60.4 74.9 -68.8 68.8C-77.3 62.7 -77.4 46.6 -80.7 33.4C-84.1 20.3 -90.7 10.2 -97.3 0L0 0Z" fill="#f4ecec"></path></g><g transform="translate(0, 600)"><path d="M0 -486.7C67.8 -484.7 135.7 -482.6 186.3 -449.7C236.8 -416.8 270.2 -353.2 301.9 -301.9C333.7 -250.6 363.9 -211.7 394.5 -163.4C425 -115.1 455.9 -57.6 486.7 0L0 0Z" fill="#fefdfd"></path><path d="M0 -389.4C54.3 -387.7 108.6 -386 149 -359.8C189.5 -333.5 216.1 -282.6 241.5 -241.5C267 -200.5 291.2 -169.3 315.6 -130.7C340 -92.1 364.7 -46.1 389.4 0L0 0Z" fill="#fbf8f8"></path><path d="M0 -292C40.7 -290.8 81.4 -289.5 111.8 -269.8C142.1 -250.1 162.1 -211.9 181.2 -181.2C200.2 -150.4 218.4 -127 236.7 -98C255 -69.1 273.5 -34.5 292 0L0 0Z" fill="#f8f3f3"></path><path d="M0 -194.7C27.1 -193.9 54.3 -193 74.5 -179.9C94.7 -166.7 108.1 -141.3 120.8 -120.8C133.5 -100.3 145.6 -84.7 157.8 -65.4C170 -46.1 182.4 -23 194.7 0L0 0Z" fill="#f5eeee"></path><path d="M0 -97.3C13.6 -96.9 27.1 -96.5 37.3 -89.9C47.4 -83.4 54 -70.6 60.4 -60.4C66.7 -50.1 72.8 -42.3 78.9 -32.7C85 -23 91.2 -11.5 97.3 0L0 0Z" fill="#f4ecec"></path></g></svg>