<svg id="epsLD5ar9yX1" xmlns="http://www.w3.org/2000/svg" xmlns:xlink="http://www.w3.org/1999/xlink" viewBox="0 0 220 271" shape-rendering="geometricPrecision" text-rendering="geometricPrecision"><rect width="219" height="56" rx="0" ry="0" transform="translate(0 143)" fill="#f1b952"/><path d="M1,3.33536c0-2.685683,3.25825-4.01823,5.14023-2.10223L84,80.5h-83L1,3.33536Z" fill="#bcfc32"/><path d="M218,3.33536c0-2.685683-3.258-4.01823-5.14-2.10223L135,80.5h83v-77.16464Z" fill="#bcfc32"/><g><path d="M35,174l14.7224-28.5h-29.4448L35,174Z" fill="#ccc5c5"/><path d="M21.0986,146L35,172.911L48.9014,146h-27.8028Z" fill="none" stroke="#000" stroke-opacity="0.32"/></g><g><path d="M182,173l14.722-28.5h-29.444L182,173Z" fill="#ccc5c5"/><path d="M168.099,145L182,171.911L195.901,145h-27.802Z" fill="none" stroke="#000" stroke-opacity="0.32"/></g><g><rect width="219" height="79" rx="3" ry="3" transform="translate(0 192)" fill="#bcfc32" fill-opacity="0.93"/><g><path d="M17,164l14.7224,28.5h-29.44483L17,164Z" fill="#ccc5c5"/><path d="M3.09863,192L17,165.089L30.9014,192h-27.80277Z" fill="none" stroke="#000" stroke-opacity="0.32"/></g><g><path d="M77,164l14.7224,28.5h-29.4448L77,164Z" fill="#ccc5c5"/><path d="M63.0986,192L77,165.089L90.9014,192h-27.8028Z" fill="none" stroke="#000" stroke-opacity="0.32"/></g><g><path d="M139,164l14.722,28.5h-29.444L139,164Z" fill="#ccc5c5"/><path d="M125.099,192L139,165.089L152.901,192h-27.802Z" fill="none" stroke="#000" stroke-opacity="0.32"/></g><g><path d="M202,164l14.722,28.5h-29.444L202,164Z" fill="#ccc5c5"/><path d="M188.099,192L202,165.089L215.901,192h-27.802Z" fill="none" stroke="#000" stroke-opacity="0.32"/></g></g><g><path d="M89,171l14.722-28.5h-29.4444L89,171Z" fill="#ccc5c5"/><path d="M75.0986,143L89,169.911L102.901,143h-27.8024Z" fill="none" stroke="#000" stroke-opacity="0.32"/></g><g><path d="M127,171l14.722-28.5h-29.444L127,171Z" fill="#ccc5c5"/><path d="M113.099,143L127,169.911L140.901,143h-27.802Z" fill="none" stroke="#000" stroke-opacity="0.32"/></g><rect width="219" height="66" rx="3" ry="3" transform="translate(0 80)" fill="#f00"/><g><ellipse rx="38" ry="38.5" transform="translate(182 125.5)" fill="#9812ee"/><ellipse rx="38" ry="38.5" transform="translate(38 124.5)" fill="#9812ee"/><ellipse rx="16" ry="17" transform="translate(44 128)" fill="#9cdf0a"/><ellipse rx="16" ry="17" transform="translate(174 128)" fill="#9cdf0a"/></g></svg>
