<?xml version="1.0" encoding="UTF-8" standalone="no" ?>
<!DOCTYPE svg PUBLIC "-//W3C//DTD SVG 1.1//EN" "http://www.w3.org/Graphics/SVG/1.1/DTD/svg11.dtd">
<svg xmlns="http://www.w3.org/2000/svg" xmlns:xlink="http://www.w3.org/1999/xlink" version="1.1" width="18" height="18" viewBox="0 0 640 640" xml:space="preserve">
<desc>Created with Fabric.js 5.3.0</desc>
<defs>
</defs>
<g transform="matrix(1.2528675736 0 0 1.2356070934 109.9980157711 529.2361259778)" id="yrxdg6sLRWLEUUYG32yib"  >
<path style="stroke: rgb(197,240,213); stroke-width: 0; stroke-dasharray: none; stroke-linecap: butt; stroke-dashoffset: 0; stroke-linejoin: miter; stroke-miterlimit: 4; fill: rgb(152,18,238); fill-rule: nonzero; opacity: 1;"  transform=" translate(0, 0)" d="M -84.74576 -84.74576 L 84.74577000000001 -84.74576 L 84.74577000000001 84.74577000000001 L -84.74576 84.74577000000001 z" stroke-linecap="round" />
</g>
<g transform="matrix(1.2528675736 0 0 1.2356070934 525.6689473195 530.9115254265)" id="3816xhCSs4ftyFQSuuHlm"  >
<path style="stroke: rgb(197,240,213); stroke-width: 0; stroke-dasharray: none; stroke-linecap: butt; stroke-dashoffset: 0; stroke-linejoin: miter; stroke-miterlimit: 4; fill: rgb(185,241,67); fill-rule: nonzero; opacity: 1;"  transform=" translate(0, 0)" d="M -84.74576 -84.74576 L 84.74577000000001 -84.74576 L 84.74577000000001 84.74577000000001 L -84.74576 84.74577000000001 z" stroke-linecap="round" />
</g>
<g transform="matrix(1.2528675736 0 0 1.2356070934 317.2073107031 529.2570684709)" id="T959HnJM7WklXvB6zlUhi"  >
<path style="stroke: rgb(197,240,213); stroke-width: 0; stroke-dasharray: none; stroke-linecap: butt; stroke-dashoffset: 0; stroke-linejoin: miter; stroke-miterlimit: 4; fill: rgb(246,204,127); fill-rule: nonzero; opacity: 1;"  transform=" translate(0, 0)" d="M -84.74576 -84.74576 L 84.74577000000001 -84.74576 L 84.74577000000001 84.74577000000001 L -84.74576 84.74577000000001 z" stroke-linecap="round" />
</g>
<g transform="matrix(1.7405958861 0 0 1.7166160805 122.9025214351 67.0102759191)" id="vfRLfcMQglbdUnWnpYIxn"  >
<path style="stroke: none; stroke-width: 1; stroke-dasharray: none; stroke-linecap: butt; stroke-dashoffset: 0; stroke-linejoin: miter; stroke-miterlimit: 4; fill: rgb(151,198,52); fill-rule: nonzero; opacity: 1;"  transform=" translate(-40, -40)" d="M 0 0 L 80 80 L 0 80 L 0 0 z" stroke-linecap="round" />
</g>
<g transform="matrix(2.8559669574 0 0 0.8729735551 320.9051408586 229.6435911089)" id="9mshgg2D5JotNXrZRubE-"  >
<path style="stroke: rgb(166,160,49); stroke-width: 0; stroke-dasharray: none; stroke-linecap: butt; stroke-dashoffset: 0; stroke-linejoin: miter; stroke-miterlimit: 4; fill: rgb(255,33,45); fill-rule: nonzero; opacity: 1;"  transform=" translate(0, 0)" d="M -110.10638 -73.75362 C -110.10638 -93.8307 -105.13145 -110.10639 -98.99456 -110.10639 L 98.99456 -110.10639 L 98.99456 -110.10639 C 105.13145 -110.10639 110.10638 -93.83070000000001 110.10638 -73.75362000000001 L 110.10638 73.75360999999998 L 110.10638 73.75360999999998 C 110.10638 93.83068999999998 105.13145 110.10637999999997 98.99456 110.10637999999997 L -98.99456 110.10637999999997 L -98.99456 110.10637999999997 C -105.13145 110.10637999999997 -110.10638 93.83068999999998 -110.10638 73.75360999999998 z" stroke-linecap="round" />
</g>
<g transform="matrix(5.180977612 0 0 5.1096004264 211.6208747326 221.2454899226)" id="2Atv98QQbVVvIQEA0dpkU"  >
<path style="stroke: none; stroke-width: 1; stroke-dasharray: none; stroke-linecap: butt; stroke-dashoffset: 0; stroke-linejoin: miter; stroke-miterlimit: 4; fill: rgb(185,241,67); fill-rule: nonzero; opacity: 1;"  transform=" translate(-40, -40)" d="M 0 0 L 80 80 L 0 80 L 0 0 z" stroke-linecap="round" />
</g>
<g transform="matrix(1.2528675736 0 0 1.2356070934 454.5078333862 271.4088313983)" id="4xqrBHLEjrm2JY3vyyaeB"  >
<path style="stroke: rgb(246,123,223); stroke-width: 0; stroke-dasharray: none; stroke-linecap: butt; stroke-dashoffset: 0; stroke-linejoin: miter; stroke-miterlimit: 4; fill: rgb(152,18,238); fill-rule: nonzero; opacity: 1;"  transform=" translate(0, 0)" d="M 0 -89.3617 C 49.32766 -89.3617 89.3617 -49.32766 89.3617 0 C 89.3617 49.32766 49.32766 89.3617 0 89.3617 C -49.32766 89.3617 -89.3617 49.32766 -89.3617 0 C -89.3617 -49.32766 -49.32766 -89.3617 0 -89.3617 z" stroke-linecap="round" />
</g>
<g transform="matrix(0.7035915557 0 0 0.6938983301 545.1736938028 396.788109123)" id="s4zAd68_nNx-rEbbnSv50"  >
<path style="stroke: none; stroke-width: 1; stroke-dasharray: none; stroke-linecap: butt; stroke-dashoffset: 0; stroke-linejoin: miter; stroke-miterlimit: 4; fill: rgb(179,181,179); fill-rule: nonzero; opacity: 1;"  transform=" translate(-40, -40)" d="M 60 40 L 80 80 L 40 80 L 0 80 L 20 40 L 40 0 L 60 40 z" stroke-linecap="round" />
</g>
<g transform="matrix(0.7035915556 0 0 -0.69389833 579.5582543739 355.7764694257)" id="0xwCWfZ1DsmEcF6z0nx0g"  >
<path style="stroke: none; stroke-width: 1; stroke-dasharray: none; stroke-linecap: butt; stroke-dashoffset: 0; stroke-linejoin: miter; stroke-miterlimit: 4; fill: rgb(179,181,179); fill-rule: nonzero; opacity: 1;"  transform=" translate(-40, -40)" d="M 60 40 L 80 80 L 40 80 L 0 80 L 20 40 L 40 0 L 60 40 z" stroke-linecap="round" />
</g>
</svg>